HIERARCHY
ROOT RootJoint
{
    OFFSET   0.000000   0.000000   0.000000
    CHANNELS 6 Xposition Yposition Zposition Xrotation Yrotation Zrotation
    JOINT lHip
    {
        OFFSET   0.100000  -0.051395   0.000000
        CHANNELS 3 Xrotation Yrotation Zrotation
        JOINT lKnee
        {
            OFFSET   0.000000  -0.410000   0.000000
            CHANNELS 3 Xrotation Yrotation Zrotation
            JOINT lAnkle
            {
                OFFSET   0.000000  -0.390000   0.000000
                CHANNELS 3 Xrotation Yrotation Zrotation
                JOINT lToeJoint
                {
                    OFFSET   0.000000  -0.050000   0.130000
                    CHANNELS 3 Xrotation Yrotation Zrotation
                    End Site
                    {
                        OFFSET   0.010000   0.002000   0.060000
                    }
                }
            }
        }
    }
    JOINT pelvis_lowerback
    {
        OFFSET   0.000000   0.093605   0.000000
        CHANNELS 3 Xrotation Yrotation Zrotation
        JOINT lowerback_torso
        {
            OFFSET   0.000000   0.100000   0.000000
            CHANNELS 3 Xrotation Yrotation Zrotation
            JOINT lTorso_Clavicle
            {
                OFFSET   0.001000   0.157500   0.000000
                CHANNELS 3 Xrotation Yrotation Zrotation
                JOINT lShoulder
                {
                    OFFSET   0.117647   0.000000   0.000000
                    CHANNELS 3 Xrotation Yrotation Zrotation
                    JOINT lElbow
                    {
                        OFFSET   0.245000   0.000000   0.000000
                        CHANNELS 3 Xrotation Yrotation Zrotation
                        JOINT lWrist
                        {
                            OFFSET   0.240000   0.000000   0.000000
                            CHANNELS 3 Xrotation Yrotation Zrotation
                            End Site
                            {
                                OFFSET   0.116353  -0.002500   0.000000
                            }
                        }
                    }
                }
            }
            JOINT rTorso_Clavicle
            {
                OFFSET  -0.001000   0.157500   0.000000
                CHANNELS 3 Xrotation Yrotation Zrotation
                JOINT rShoulder
                {
                    OFFSET  -0.117647   0.000000   0.000000
                    CHANNELS 3 Xrotation Yrotation Zrotation
                    JOINT rElbow
                    {
                        OFFSET  -0.245000   0.000000   0.000000
                        CHANNELS 3 Xrotation Yrotation Zrotation
                        JOINT rWrist
                        {
                            OFFSET  -0.240000   0.000000   0.000000
                            CHANNELS 3 Xrotation Yrotation Zrotation
                            End Site
                            {
                                OFFSET  -0.116353  -0.002500   0.000000
                            }
                        }
                    }
                }
            }
            JOINT torso_head
            {
                OFFSET   0.000000   0.282350   0.000000
                CHANNELS 3 Xrotation Yrotation Zrotation
                End Site
                {
                    OFFSET   0.000000   0.192650   0.000000
                }
            }
        }
    }
    JOINT rHip
    {
        OFFSET  -0.100000  -0.051395   0.000000
        CHANNELS 3 Xrotation Yrotation Zrotation
        JOINT rKnee
        {
            OFFSET   0.000000  -0.410000   0.000000
            CHANNELS 3 Xrotation Yrotation Zrotation
            JOINT rAnkle
            {
                OFFSET   0.000000  -0.390000   0.000000
                CHANNELS 3 Xrotation Yrotation Zrotation
                JOINT rToeJoint
                {
                    OFFSET   0.000000  -0.050000   0.130000
                    CHANNELS 3 Xrotation Yrotation Zrotation
                    End Site
                    {
                        OFFSET  -0.010000   0.002000   0.060000
                    }
                }
            }
        }
    }
}
MOTION
Frames: 5
Frame Time:   0.016667
-0.001735   0.855388   0.315499   2.006935426164603   7.603252157475694   -0.8028735415927263   11.21350548045699   -3.288560478015644   -1.5965422890389809   13.518703378400193   -1.158090792021914   -4.217138076327229   -17.754510078031664   -3.2172018363952017   9.230936154145224   -7.952363525098758   0.20849658385762299   -1.5312118395803433   2.2178247571617136   -0.9831407375236743   -1.1358361533477248   2.067396967646213   -6.31677029516493   2.081537283843304   2.016713182679338   -0.5377590481562552   -19.34615993000856   -5.132244794336412   -37.5773244034665   -50.19523915757044   0.1930412244571152   -24.742300595570082   4.438562172159905   0.44135656986027855   2.5464092075289217   4.857060846275915   1.9502873526528761   -5.810862510274752   21.095771566959375   23.710847154720593   29.99855544436591   53.237253138893955   0.4133067573402141   10.414201977283449   1.9495873242002504   3.5726730351175893   -9.484152626575508   6.918314672097489   1.4526200851407414   -0.035888402364820514   0.10723196764046648   -27.723846581844665   -1.6557596342861352   2.428183944537993   -2.9664518494434162   -5.511686619239125   1.441249490254657   2.2382317085789745   -3.184380911887466   -0.894290239368583   -0.012413477930195378   -0.007451379321624485   0.02234606840300672   
-0.00381   0.853981   0.337002   2.006935426164603   7.603252157475694   -0.8028735415927263   11.711489377009155   -2.3577775174120195   0.05959890822747471   15.195213730818718   -1.8618539384773236   -4.390213948912163   -17.194343797839238   -3.6146000488282826   9.241086501207638   -9.401028323060052   0.26079340525736167   -1.5656111100043721   2.2178247571617136   -0.9831407375236743   -1.1358361533477248   1.4540087803233486   -6.633380109203125   1.8677702367993414   2.016713182679338   -0.5377590481562552   -19.34615993000856   -3.9452604153748885   -37.142156949804345   -49.96536332933024   0.19830064938159295   -24.67512057082413   4.311854227367615   0.9135202150843176   2.43714591298131   4.84745556090745   1.9502873526528761   -5.810862510274752   21.095771566959375   23.795337192792406   30.80454584450299   52.864345875249384   0.4133067573402141   10.414201977283449   1.9495873242002504   3.100479667812208   -9.779128312613834   7.017652375205302   1.4526200851407414   -0.035888402364820514   0.10723196764046648   -27.595386828708676   -2.728873666484704   3.4967193176807374   -1.6743431065249137   -5.529977342414443   1.8310649487778037   6.675060417267299   -3.333324909275048   -4.019119338035033   -0.012413477930195378   -0.007451379321624485   0.02234606840300672   
-0.005963   0.852898   0.358713   1.996286860517439   8.047781659503089   -2.8567413161864104   11.997711142494955   -1.156006078363944   1.8068715084421059   17.21153660673021   -2.700412453657766   -4.538797979877295   -16.44360760190876   -4.0810379617177075   9.21987991478426   -10.98116030347055   0.3002308401028337   -1.540192104998992   3.070428720647688   -1.0779027481575099   1.39759936349436   0.8831194845848467   -6.936885637877696   1.7227762883448936   1.8401151337339625   0.24621082040419354   -19.787297070840204   -2.653725587382533   -36.72340162931869   -49.695085785807855   0.20587000649280202   -24.547008022272   4.205430757374177   1.3100215493770082   2.3592715701377323   4.825090041798575   2.1808426566038484   -5.2202188867325665   21.243424671185384   23.831719354299334   31.60072720689678   52.459076778102656   0.421615545496423   9.8111327367274   1.9700817416571288   2.7214672772808925   -10.081041034250099   7.033379443691727   1.4389268754499556   0.03739780947651933   0.01194630179032471   -27.62655973347776   -3.5995257125330085   4.5937378692417905   0.1436992643220444   -5.5946770384522475   2.177385778990493   10.58967946406446   -3.6898239659153345   -6.625505687601401   -0.012413501851427025   -0.007451339474159658   0.02197821860011681   
-0.008429   0.853105   0.381253   1.8441565256093406   8.27905614759443   -4.03575405139482   11.478537946457289   1.0697142852956263   3.9586753215838333   20.591485144409152   -4.0419835628116   -4.603012418309066   -14.967997303316146   -4.8224938033979   9.055249212355168   -13.094077486944615   0.2919252173544361   -1.2586583295924691   3.4936671041885416   -1.2079651299697236   2.6778630412514475   0.4726640928762635   -7.176341722304016   1.863288646904833   1.8401151337339625   0.24621082040419354   -19.787297070840204   -0.9561013363627093   -36.39557134055089   -49.269516764438976   0.1997925700203888   -24.185903582998375   4.144716516139873   1.3901910617152613   2.3864036194289064   4.738653002136572   2.2820944364477698   -4.87782081652656   21.21853130498   23.6590444786194   32.385900925263044   51.95071258358694   0.421615545496423   9.8111327367274   1.9700817416571288   2.6991889435641965   -10.427910152744351   6.716704006379312   1.425355510601686   0.11070685384014381   -0.08332221646020674   -28.35355859524655   -3.668260308579111   5.7770768728545185   4.052134555802941   -5.861654773313976   2.339702918145833   12.455178676043111   -4.027043020059164   -7.236320592831639   -0.012413525772353341   -0.007451299626491276   0.021610368797125128   
-0.010811   0.853903   0.404154   1.6440641773938223   8.32942452210846   -5.018680944852458   10.491243926131583   3.5381191451246403   5.922160022472965   24.518049641141552   -5.48698683903603   -4.356870076043753   -12.815822259291371   -5.536286738492083   8.771315064007466   -15.432877147702882   0.18021755736448064   -0.7197727880567152   3.807115958157348   -1.3162452100442448   3.699098135336133   0.2346988299800565   -7.289441183290184   2.0826097209423686   1.6818245773348541   1.1059348709846566   -20.54663585007033   0.7645342122028098   -36.06056195831805   -48.91994202776149   0.19646147171973258   -23.692989851990312   4.09368365412268   1.5086012609144601   2.4740584144243045   4.610877678554345   2.3717345812046053   -4.462814285621657   21.11992207890458   23.39270027233554   33.18723300026164   51.50142906578403   0.4352287872771882   9.13441826190273   2.1299654680511995   2.5525723782645247   -10.775079549156452   6.477895612473615   1.4119060149447074   0.18403836060604964   -0.17857368119755856   -28.930047808499637   -3.69000143401478   6.7989934808708075   7.940392342639998   -6.145873375317301   2.642949977033646   13.55243217546364   -4.296167470571687   -7.731084946843509   -0.0124135496930761   -0.007451259778721116   0.021242518994031664   
